<?xml version="1.0" encoding="utf-8"?>
<!-- Generator: Adobe Illustrator 27.0.1, SVG Export Plug-In . SVG Version: 6.00 Build 0)  -->
<!DOCTYPE svg PUBLIC "-//W3C//DTD SVG 1.1//EN" "http://www.w3.org/Graphics/SVG/1.1/DTD/svg11.dtd" [
	<!ENTITY ns_extend "http://ns.adobe.com/Extensibility/1.0/">
	<!ENTITY ns_ai "http://ns.adobe.com/AdobeIllustrator/10.0/">
	<!ENTITY ns_graphs "http://ns.adobe.com/Graphs/1.0/">
	<!ENTITY ns_vars "http://ns.adobe.com/Variables/1.0/">
	<!ENTITY ns_imrep "http://ns.adobe.com/ImageReplacement/1.0/">
	<!ENTITY ns_sfw "http://ns.adobe.com/SaveForWeb/1.0/">
	<!ENTITY ns_custom "http://ns.adobe.com/GenericCustomNamespace/1.0/">
	<!ENTITY ns_adobe_xpath "http://ns.adobe.com/XPath/1.0/">
]>
<svg version="1.1" xmlns:x="&ns_extend;" xmlns:i="&ns_ai;" xmlns:graph="&ns_graphs;"
	 xmlns="http://www.w3.org/2000/svg" xmlns:xlink="http://www.w3.org/1999/xlink" x="0px" y="0px" width="1000px" height="525px"
	 viewBox="0 0 1000 525" enable-background="new 0 0 1000 525" xml:space="preserve">
<metadata>
	<sfw  xmlns="&ns_sfw;">
		<slices></slices>
		<sliceSourceBounds  bottomLeftOrigin="true" height="2682.128" width="7699" x="-2000" y="39.232"></sliceSourceBounds>
	</sfw>
</metadata>
<g id="FILL-BACKGROUND">
	<rect fill="#FFFFFF" width="1000" height="525"/>
</g>
<g id="N-DIMENSIONS">
	<g>
		<g>
			<g id="POLYLINE_00000106832083458856166980000007362944951545395111_">
				
					<polyline fill="none" stroke="#00B9D2" stroke-width="2" stroke-linecap="round" stroke-linejoin="round" stroke-miterlimit="10" points="
					533.903,377.046 527.54,383.409 533.903,389.773 				"/>
			</g>
			<g id="POLYLINE_00000166644418166863469120000009608349956172763018_">
				
					<line fill="none" stroke="#00B9D2" stroke-width="2" stroke-linecap="round" stroke-linejoin="round" stroke-miterlimit="10" x1="527.54" y1="383.409" x2="645.056" y2="383.409"/>
			</g>
			<g id="POLYLINE_00000118397049039437813080000000526192877911642516_">
				
					<line fill="none" stroke="#00B9D2" stroke-width="2" stroke-linecap="round" stroke-linejoin="round" stroke-miterlimit="10" x1="784" y1="383.409" x2="923.487" y2="383.409"/>
			</g>
			<g id="POLYLINE_00000176032303314929857190000014888642708524811679_">
				
					<polyline fill="none" stroke="#00B9D2" stroke-width="2" stroke-linecap="round" stroke-linejoin="round" stroke-miterlimit="10" points="
					917.11,377.058 923.474,383.421 917.11,389.784 				"/>
			</g>
			<g id="MTEXT_00000054971680120408324490000010279706101564937632_">
				<g>
					<g>
						<path fill="#00B9D2" d="M656.121,390.256c-0.073-0.087-0.109-0.19-0.109-0.311l0.039-0.18l5-11.7h-6.6
							c-0.133,0-0.244-0.043-0.33-0.13c-0.087-0.086-0.13-0.196-0.13-0.33v-0.739c0-0.147,0.04-0.264,0.12-0.351
							s0.193-0.13,0.34-0.13h8.16c0.146,0,0.26,0.043,0.34,0.13s0.12,0.203,0.12,0.351v0.68c0,0.24-0.054,0.5-0.16,0.78l-4.94,11.56
							c-0.066,0.146-0.14,0.267-0.22,0.36c-0.08,0.093-0.193,0.14-0.34,0.14h-1C656.291,390.386,656.194,390.343,656.121,390.256z"
							/>
						<path fill="#00B9D2" d="M663.781,390.256c-0.087-0.087-0.131-0.196-0.131-0.33v-1.38c0-0.133,0.044-0.247,0.131-0.34
							c0.086-0.094,0.196-0.141,0.33-0.141h1.38c0.133,0,0.243,0.047,0.329,0.141c0.088,0.093,0.131,0.207,0.131,0.34v1.38
							c0,0.134-0.043,0.243-0.131,0.33c-0.086,0.087-0.196,0.13-0.329,0.13h-1.38C663.978,390.386,663.867,390.343,663.781,390.256z
							"/>
						<path fill="#00B9D2" d="M669.401,390.256c-0.073-0.087-0.11-0.19-0.11-0.311l0.041-0.18l5-11.7h-6.601
							c-0.134,0-0.243-0.043-0.33-0.13c-0.087-0.086-0.13-0.196-0.13-0.33v-0.739c0-0.147,0.04-0.264,0.12-0.351
							c0.079-0.087,0.192-0.13,0.34-0.13h8.16c0.146,0,0.26,0.043,0.34,0.13s0.12,0.203,0.12,0.351v0.68c0,0.24-0.054,0.5-0.16,0.78
							l-4.939,11.56c-0.067,0.146-0.141,0.267-0.221,0.36c-0.08,0.093-0.193,0.14-0.34,0.14h-1
							C669.571,390.386,669.475,390.343,669.401,390.256z"/>
						<path fill="#00B9D2" d="M679.642,389.936c-0.78-0.433-1.374-1.017-1.78-1.75s-0.609-1.533-0.609-2.399
							c0-1.146,0.459-2.373,1.379-3.681l3.82-5.319c0.014-0.014,0.051-0.061,0.11-0.141s0.137-0.143,0.229-0.189
							c0.094-0.047,0.201-0.07,0.32-0.07h0.98c0.119,0,0.217,0.043,0.289,0.13c0.074,0.087,0.111,0.19,0.111,0.311
							c0,0.066-0.034,0.153-0.101,0.26l-2.92,4.08c0.347-0.08,0.733-0.12,1.159-0.12c0.974,0,1.83,0.217,2.57,0.649
							c0.74,0.434,1.313,1.007,1.721,1.721c0.406,0.713,0.609,1.497,0.609,2.35c0,0.854-0.203,1.65-0.609,2.39
							c-0.407,0.74-0.997,1.33-1.771,1.771s-1.687,0.66-2.739,0.66C681.345,390.586,680.422,390.369,679.642,389.936z
							 M684.012,388.565c0.492-0.239,0.887-0.597,1.18-1.069c0.293-0.474,0.439-1.044,0.439-1.71c0-0.653-0.149-1.217-0.449-1.69
							c-0.301-0.473-0.697-0.833-1.189-1.08c-0.494-0.246-1.027-0.37-1.601-0.37s-1.106,0.124-1.601,0.37
							c-0.493,0.247-0.887,0.607-1.18,1.08c-0.293,0.474-0.439,1.037-0.439,1.69c0,0.666,0.146,1.236,0.439,1.71
							c0.293,0.473,0.687,0.83,1.18,1.069c0.494,0.24,1.027,0.36,1.601,0.36C682.979,388.926,683.518,388.806,684.012,388.565z"/>
						<path fill="#00B9D2" d="M689.48,379.866c-0.06-0.08-0.076-0.181-0.049-0.301l0.439-2.8c0.053-0.387,0.24-0.58,0.561-0.58
							h1.279c0.094,0,0.17,0.033,0.23,0.101c0.06,0.066,0.09,0.146,0.09,0.239c0,0.134-0.02,0.24-0.061,0.32l-1.039,2.7
							c-0.067,0.146-0.141,0.257-0.221,0.33s-0.199,0.109-0.359,0.109h-0.621C689.624,379.985,689.541,379.945,689.48,379.866z
							 M692.621,379.866c-0.061-0.08-0.077-0.181-0.051-0.301l0.441-2.8c0.053-0.387,0.239-0.58,0.559-0.58h1.281
							c0.093,0,0.17,0.033,0.229,0.101c0.06,0.066,0.09,0.146,0.09,0.239c0,0.134-0.021,0.24-0.06,0.32l-1.041,2.7
							c-0.066,0.146-0.139,0.257-0.219,0.33s-0.201,0.109-0.36,0.109h-0.62C692.764,379.985,692.682,379.945,692.621,379.866z"/>
						<path fill="#00B9D2" d="M702.49,394.416c-0.08-0.087-0.119-0.197-0.119-0.33v-21.16c0-0.133,0.039-0.243,0.119-0.33
							s0.188-0.13,0.32-0.13h0.74c0.133,0,0.243,0.043,0.33,0.13c0.086,0.087,0.13,0.197,0.13,0.33v21.16
							c0,0.133-0.044,0.243-0.13,0.33c-0.087,0.086-0.197,0.13-0.33,0.13h-0.74C702.678,394.546,702.57,394.502,702.49,394.416z"/>
						<path fill="#00B9D2" d="M715.61,390.256c-0.08-0.087-0.12-0.196-0.12-0.33v-11.28l-3.359,2.58
							c-0.094,0.08-0.194,0.12-0.301,0.12c-0.12,0-0.233-0.066-0.34-0.2l-0.48-0.62c-0.066-0.093-0.1-0.187-0.1-0.279
							c0-0.146,0.066-0.267,0.2-0.36l4.34-3.36c0.146-0.093,0.319-0.14,0.521-0.14h0.939c0.133,0,0.243,0.043,0.33,0.13
							c0.086,0.087,0.13,0.197,0.13,0.33v13.08c0,0.134-0.044,0.243-0.13,0.33c-0.087,0.087-0.197,0.13-0.33,0.13h-0.98
							C715.797,390.386,715.689,390.343,715.61,390.256z"/>
						<path fill="#00B9D2" d="M722.5,390.256c-0.074-0.087-0.11-0.19-0.11-0.311c0-0.093,0.026-0.18,0.08-0.26l3.08-4.28
							c-0.32,0.08-0.693,0.12-1.12,0.12c-0.96-0.013-1.8-0.236-2.52-0.67c-0.721-0.433-1.271-1-1.65-1.7
							c-0.38-0.699-0.57-1.449-0.57-2.25c0-0.8,0.19-1.56,0.57-2.279c0.38-0.721,0.946-1.307,1.699-1.76
							c0.754-0.453,1.664-0.681,2.73-0.681s1.98,0.22,2.74,0.66s1.333,1.017,1.721,1.73c0.386,0.713,0.579,1.477,0.579,2.29
							c0,0.733-0.13,1.38-0.39,1.939c-0.26,0.561-0.604,1.14-1.03,1.74l-3.88,5.439c-0.094,0.12-0.184,0.217-0.27,0.29
							c-0.088,0.074-0.211,0.11-0.371,0.11h-1C722.67,390.386,722.572,390.343,722.5,390.256z M726.27,383.565
							c0.48-0.253,0.86-0.609,1.141-1.069c0.279-0.46,0.42-0.99,0.42-1.591c0-0.612-0.141-1.152-0.42-1.619
							c-0.28-0.467-0.66-0.827-1.141-1.08c-0.48-0.254-1.007-0.38-1.58-0.38c-0.56,0-1.076,0.126-1.55,0.38
							c-0.474,0.253-0.851,0.613-1.13,1.08c-0.28,0.467-0.42,1.007-0.42,1.619c0,0.601,0.14,1.131,0.42,1.591
							c0.279,0.46,0.652,0.816,1.12,1.069c0.466,0.254,0.986,0.38,1.56,0.38S725.789,383.819,726.27,383.565z"/>
						<path fill="#00B9D2" d="M730.92,390.256c-0.087-0.087-0.131-0.196-0.131-0.33v-1.38c0-0.133,0.044-0.247,0.131-0.34
							c0.086-0.094,0.196-0.141,0.33-0.141h1.38c0.133,0,0.243,0.047,0.329,0.141c0.088,0.093,0.131,0.207,0.131,0.34v1.38
							c0,0.134-0.043,0.243-0.131,0.33c-0.086,0.087-0.196,0.13-0.329,0.13h-1.38C731.116,390.386,731.006,390.343,730.92,390.256z"
							/>
						<path fill="#00B9D2" d="M736.54,390.256c-0.073-0.087-0.11-0.19-0.11-0.311l0.041-0.18l5-11.7h-6.601
							c-0.134,0-0.243-0.043-0.33-0.13c-0.087-0.086-0.13-0.196-0.13-0.33v-0.739c0-0.147,0.04-0.264,0.12-0.351
							c0.079-0.087,0.192-0.13,0.34-0.13h8.16c0.146,0,0.26,0.043,0.34,0.13s0.12,0.203,0.12,0.351v0.68c0,0.24-0.054,0.5-0.16,0.78
							l-4.939,11.56c-0.067,0.146-0.141,0.267-0.221,0.36c-0.08,0.093-0.193,0.14-0.34,0.14h-1
							C736.71,390.386,736.613,390.343,736.54,390.256z"/>
						<path fill="#00B9D2" d="M751.27,389.376c-0.801-0.807-1.221-1.937-1.26-3.391l-0.021-0.8l0.021-0.8
							c0.039-1.453,0.459-2.583,1.26-3.39c0.8-0.807,1.912-1.21,3.34-1.21c0.96,0,1.77,0.17,2.43,0.51s1.153,0.764,1.48,1.27
							c0.326,0.507,0.503,1.014,0.529,1.521c0.014,0.12-0.029,0.227-0.129,0.319c-0.101,0.094-0.211,0.141-0.33,0.141h-0.881
							c-0.133,0-0.233-0.03-0.3-0.09c-0.067-0.061-0.134-0.17-0.2-0.33c-0.24-0.653-0.57-1.117-0.99-1.391
							c-0.42-0.272-0.949-0.409-1.59-0.409c-0.84,0-1.506,0.26-2,0.779c-0.493,0.521-0.76,1.313-0.8,2.38l-0.021,0.7l0.021,0.7
							c0.04,1.066,0.307,1.86,0.8,2.38c0.494,0.521,1.16,0.78,2,0.78c0.653,0,1.188-0.137,1.6-0.41
							c0.414-0.273,0.74-0.736,0.98-1.39c0.066-0.16,0.133-0.271,0.2-0.33c0.066-0.061,0.167-0.09,0.3-0.09h0.881
							c0.119,0,0.229,0.047,0.33,0.14c0.1,0.094,0.143,0.2,0.129,0.32c-0.026,0.493-0.203,0.993-0.529,1.5
							c-0.327,0.507-0.82,0.933-1.48,1.279s-1.47,0.521-2.43,0.521C753.182,390.586,752.069,390.183,751.27,389.376z"/>
						<path fill="#00B9D2" d="M761.579,390.256c-0.087-0.087-0.13-0.196-0.13-0.33v-9.48c0-0.133,0.043-0.243,0.13-0.329
							c0.087-0.087,0.196-0.131,0.33-0.131h0.84c0.134,0,0.24,0.044,0.32,0.131c0.08,0.086,0.12,0.196,0.12,0.329v0.681
							c0.72-0.894,1.693-1.34,2.92-1.34c1.467,0,2.506,0.613,3.119,1.84c0.32-0.561,0.777-1.007,1.371-1.34
							c0.593-0.334,1.256-0.5,1.99-0.5c1.092,0,1.986,0.373,2.68,1.119c0.693,0.747,1.039,1.827,1.039,3.24v5.78
							c0,0.134-0.043,0.243-0.129,0.33c-0.088,0.087-0.197,0.13-0.33,0.13h-0.86c-0.134,0-0.243-0.043-0.33-0.13
							s-0.13-0.196-0.13-0.33v-5.6c0-1.067-0.221-1.83-0.66-2.29s-1.02-0.69-1.74-0.69c-0.64,0-1.189,0.237-1.65,0.71
							c-0.459,0.474-0.689,1.23-0.689,2.271v5.6c0,0.134-0.043,0.243-0.13,0.33s-0.196,0.13-0.33,0.13h-0.88
							c-0.133,0-0.244-0.043-0.33-0.13c-0.087-0.087-0.13-0.196-0.13-0.33v-5.6c0-1.054-0.229-1.813-0.69-2.28
							c-0.459-0.467-1.029-0.7-1.709-0.7c-0.641,0-1.19,0.233-1.65,0.7c-0.461,0.467-0.69,1.22-0.69,2.26v5.62
							c0,0.134-0.044,0.243-0.13,0.33c-0.087,0.087-0.197,0.13-0.33,0.13h-0.88C761.775,390.386,761.666,390.343,761.579,390.256z"
							/>
					</g>
				</g>
			</g>
		</g>
		<g>
			<g id="POLYLINE_00000072972346221102101180000013807811005118164099_">
				
					<polyline fill="none" stroke="#00B9D2" stroke-width="2" stroke-linecap="round" stroke-linejoin="round" stroke-miterlimit="10" points="
					954.382,160.305 948.019,153.942 941.656,160.305 				"/>
			</g>
			<g id="POLYLINE_00000128447706602822054960000002263289903227652236_">
				
					<line fill="none" stroke="#00B9D2" stroke-width="2" stroke-linecap="round" stroke-linejoin="round" stroke-miterlimit="10" x1="948.019" y1="154.125" x2="948.019" y2="347.889"/>
			</g>
			<g id="POLYLINE_00000145779770170436126780000015480168620465955241_">
				
					<polyline fill="none" stroke="#00B9D2" stroke-width="2" stroke-linecap="round" stroke-linejoin="round" stroke-miterlimit="10" points="
					954.371,341.512 948.007,347.876 941.644,341.512 				"/>
			</g>
			<g id="MTEXT_00000136381270789960466530000009165118406073552803_">
				<g>
					<g>
						<path fill="#00B9D2" d="M836.213,135.076c-0.76-0.341-1.336-0.783-1.729-1.33s-0.604-1.113-0.63-1.7
							c0-0.12,0.039-0.217,0.119-0.29s0.181-0.11,0.301-0.11h0.9c0.146,0,0.266,0.03,0.359,0.09c0.094,0.061,0.166,0.178,0.22,0.351
							c0.173,0.68,0.55,1.16,1.13,1.439c0.58,0.28,1.264,0.42,2.051,0.42c0.959,0,1.723-0.229,2.289-0.689s0.851-1.116,0.851-1.97
							c0-1.627-0.993-2.44-2.979-2.44h-1.881c-0.133,0-0.243-0.043-0.33-0.13c-0.086-0.087-0.13-0.196-0.13-0.33v-0.52
							c0-0.2,0.073-0.374,0.22-0.521l3.9-4.32h-5.92c-0.133,0-0.243-0.04-0.33-0.12c-0.087-0.079-0.13-0.187-0.13-0.319v-0.72
							c0-0.147,0.043-0.264,0.13-0.351s0.197-0.13,0.33-0.13h7.92c0.146,0,0.264,0.043,0.35,0.13
							c0.087,0.087,0.131,0.203,0.131,0.351v0.659c0,0.147-0.067,0.301-0.2,0.46l-3.9,4.381h0.32c1.36,0.039,2.437,0.393,3.229,1.06
							s1.19,1.64,1.19,2.92c0,0.88-0.217,1.637-0.649,2.271c-0.434,0.633-1.037,1.119-1.811,1.46c-0.773,0.34-1.646,0.51-2.62,0.51
							C837.873,135.586,836.973,135.416,836.213,135.076z"/>
						<path fill="#00B9D2" d="M846.443,135.256c-0.087-0.087-0.131-0.196-0.131-0.33v-1.38c0-0.133,0.044-0.247,0.131-0.34
							c0.086-0.094,0.196-0.141,0.33-0.141h1.38c0.133,0,0.243,0.047,0.329,0.141c0.088,0.093,0.131,0.207,0.131,0.34v1.38
							c0,0.134-0.043,0.243-0.131,0.33c-0.086,0.087-0.196,0.13-0.329,0.13h-1.38C846.64,135.386,846.529,135.343,846.443,135.256z"
							/>
						<path fill="#00B9D2" d="M852.062,135.256c-0.072-0.087-0.109-0.19-0.109-0.311l0.04-0.18l5-11.7h-6.601
							c-0.133,0-0.243-0.043-0.33-0.13c-0.086-0.086-0.129-0.196-0.129-0.33v-0.739c0-0.147,0.039-0.264,0.119-0.351
							s0.193-0.13,0.34-0.13h8.16c0.146,0,0.26,0.043,0.34,0.13s0.121,0.203,0.121,0.351v0.68c0,0.24-0.055,0.5-0.16,0.78
							l-4.94,11.56c-0.067,0.146-0.14,0.267-0.22,0.36c-0.08,0.093-0.193,0.14-0.34,0.14h-1
							C852.232,135.386,852.137,135.343,852.062,135.256z"/>
						<path fill="#00B9D2" d="M866.583,135.256c-0.087-0.087-0.13-0.196-0.13-0.33v-2.92h-6.5c-0.133,0-0.244-0.043-0.33-0.13
							c-0.087-0.087-0.13-0.197-0.13-0.33v-0.74c0-0.187,0.073-0.387,0.22-0.6l6.02-8.48c0.067-0.106,0.167-0.189,0.301-0.25
							c0.133-0.06,0.279-0.09,0.439-0.09h1.36c0.146,0,0.261,0.04,0.34,0.12c0.08,0.08,0.12,0.193,0.12,0.34v8.48h1.82
							c0.133,0,0.242,0.043,0.33,0.13c0.086,0.087,0.13,0.196,0.13,0.33v0.76c0,0.133-0.044,0.243-0.13,0.33
							c-0.088,0.087-0.197,0.13-0.33,0.13h-1.82v2.92c0,0.134-0.043,0.243-0.13,0.33s-0.196,0.13-0.33,0.13h-0.92
							C866.779,135.386,866.67,135.343,866.583,135.256z M861.573,130.366h4.899v-6.961L861.573,130.366z"/>
						<path fill="#00B9D2" d="M872.443,124.866c-0.061-0.08-0.077-0.181-0.051-0.301l0.44-2.8c0.054-0.387,0.239-0.58,0.56-0.58
							h1.28c0.093,0,0.17,0.033,0.229,0.101c0.061,0.066,0.09,0.146,0.09,0.239c0,0.134-0.02,0.24-0.059,0.32l-1.041,2.7
							c-0.066,0.146-0.14,0.257-0.22,0.33s-0.2,0.109-0.36,0.109h-0.619C872.586,124.985,872.503,124.945,872.443,124.866z
							 M875.583,124.866c-0.06-0.08-0.077-0.181-0.05-0.301l0.439-2.8c0.053-0.387,0.24-0.58,0.561-0.58h1.279
							c0.094,0,0.17,0.033,0.23,0.101c0.061,0.066,0.09,0.146,0.09,0.239c0,0.134-0.02,0.24-0.061,0.32l-1.039,2.7
							c-0.067,0.146-0.141,0.257-0.221,0.33s-0.199,0.109-0.359,0.109h-0.62C875.727,124.985,875.643,124.945,875.583,124.866z"/>
						<path fill="#00B9D2" d="M885.453,139.416c-0.08-0.087-0.121-0.197-0.121-0.33v-21.16c0-0.133,0.041-0.243,0.121-0.33
							s0.186-0.13,0.319-0.13h0.74c0.133,0,0.243,0.043,0.329,0.13c0.088,0.087,0.131,0.197,0.131,0.33v21.16
							c0,0.133-0.043,0.243-0.131,0.33c-0.086,0.086-0.196,0.13-0.329,0.13h-0.74C885.639,139.546,885.533,139.502,885.453,139.416z
							"/>
						<path fill="#00B9D2" d="M896.962,135.256c-0.073-0.087-0.11-0.19-0.11-0.311c0-0.093,0.027-0.18,0.08-0.26l3.08-4.28
							c-0.32,0.08-0.693,0.12-1.119,0.12c-0.961-0.013-1.801-0.236-2.521-0.67c-0.72-0.433-1.271-1-1.649-1.7
							c-0.381-0.699-0.57-1.449-0.57-2.25c0-0.8,0.189-1.56,0.57-2.279c0.379-0.721,0.945-1.307,1.699-1.76s1.663-0.681,2.73-0.681
							c1.066,0,1.979,0.22,2.74,0.66c0.76,0.44,1.332,1.017,1.72,1.73c0.386,0.713,0.579,1.477,0.579,2.29
							c0,0.733-0.129,1.38-0.389,1.939c-0.261,0.561-0.604,1.14-1.031,1.74l-3.879,5.439c-0.094,0.12-0.184,0.217-0.271,0.29
							c-0.087,0.074-0.21,0.11-0.37,0.11h-1C897.132,135.386,897.035,135.343,896.962,135.256z M900.732,128.565
							c0.479-0.253,0.859-0.609,1.14-1.069s0.42-0.99,0.42-1.591c0-0.612-0.14-1.152-0.42-1.619s-0.66-0.827-1.14-1.08
							c-0.48-0.254-1.008-0.38-1.58-0.38c-0.561,0-1.077,0.126-1.551,0.38c-0.473,0.253-0.85,0.613-1.129,1.08
							c-0.281,0.467-0.42,1.007-0.42,1.619c0,0.601,0.139,1.131,0.42,1.591c0.279,0.46,0.652,0.816,1.119,1.069
							c0.467,0.254,0.986,0.38,1.561,0.38C899.725,128.945,900.252,128.819,900.732,128.565z"/>
						<path fill="#00B9D2" d="M905.383,135.256c-0.088-0.087-0.131-0.196-0.131-0.33v-1.38c0-0.133,0.043-0.247,0.131-0.34
							c0.086-0.094,0.195-0.141,0.329-0.141h1.38c0.133,0,0.244,0.047,0.33,0.141c0.087,0.093,0.131,0.207,0.131,0.34v1.38
							c0,0.134-0.044,0.243-0.131,0.33c-0.086,0.087-0.197,0.13-0.33,0.13h-1.38C905.578,135.386,905.469,135.343,905.383,135.256z"
							/>
						<path fill="#00B9D2" d="M912.112,135.046c-0.733-0.36-1.294-0.83-1.681-1.41s-0.593-1.203-0.619-1.87v-0.04
							c0-0.106,0.039-0.193,0.119-0.26s0.174-0.1,0.28-0.1h0.979c0.281,0,0.461,0.146,0.541,0.439c0.199,0.72,0.57,1.257,1.109,1.61
							c0.541,0.354,1.164,0.529,1.87,0.529c0.907,0,1.66-0.276,2.261-0.829c0.6-0.554,0.899-1.317,0.899-2.29
							c0-0.894-0.3-1.604-0.899-2.131c-0.601-0.526-1.354-0.79-2.261-0.79c-0.479,0-0.866,0.061-1.159,0.181
							c-0.294,0.12-0.594,0.293-0.9,0.52c-0.174,0.134-0.316,0.23-0.43,0.29c-0.113,0.061-0.237,0.09-0.371,0.09h-0.959
							c-0.121,0-0.228-0.043-0.32-0.13c-0.094-0.086-0.134-0.189-0.12-0.31l0.62-6.66c0.04-0.333,0.207-0.5,0.5-0.5h6.92
							c0.146,0,0.26,0.04,0.34,0.12s0.12,0.193,0.12,0.34v0.74c0,0.133-0.044,0.24-0.13,0.319c-0.087,0.08-0.197,0.12-0.33,0.12
							h-5.76l-0.36,4.021c0.64-0.453,1.5-0.68,2.58-0.68c0.894,0,1.706,0.177,2.44,0.529c0.732,0.354,1.316,0.87,1.75,1.55
							c0.433,0.681,0.649,1.487,0.649,2.421c0,0.986-0.217,1.836-0.649,2.55c-0.434,0.713-1.033,1.253-1.801,1.62
							c-0.767,0.366-1.643,0.55-2.63,0.55C913.712,135.586,912.846,135.405,912.112,135.046z"/>
						<path fill="#00B9D2" d="M927.971,134.376c-0.799-0.807-1.219-1.937-1.26-3.391l-0.02-0.8l0.02-0.8
							c0.041-1.453,0.461-2.583,1.26-3.39c0.801-0.807,1.914-1.21,3.341-1.21c0.96,0,1.771,0.17,2.43,0.51
							c0.66,0.34,1.153,0.764,1.479,1.27c0.327,0.507,0.504,1.014,0.531,1.521c0.013,0.12-0.031,0.227-0.131,0.319
							c-0.1,0.094-0.21,0.141-0.33,0.141h-0.88c-0.134,0-0.233-0.03-0.3-0.09c-0.066-0.061-0.133-0.17-0.2-0.33
							c-0.239-0.653-0.569-1.117-0.989-1.391c-0.42-0.272-0.951-0.409-1.59-0.409c-0.841,0-1.508,0.26-2,0.779
							c-0.494,0.521-0.761,1.313-0.801,2.38l-0.02,0.7l0.02,0.7c0.04,1.066,0.307,1.86,0.801,2.38c0.492,0.521,1.159,0.78,2,0.78
							c0.652,0,1.186-0.137,1.6-0.41c0.413-0.273,0.74-0.736,0.979-1.39c0.067-0.16,0.134-0.271,0.2-0.33
							c0.066-0.061,0.166-0.09,0.3-0.09h0.88c0.12,0,0.23,0.047,0.33,0.14c0.1,0.094,0.144,0.2,0.131,0.32
							c-0.027,0.493-0.204,0.993-0.531,1.5c-0.326,0.507-0.819,0.933-1.479,1.279c-0.659,0.347-1.47,0.521-2.43,0.521
							C929.885,135.586,928.771,135.183,927.971,134.376z"/>
						<path fill="#00B9D2" d="M938.281,135.256c-0.087-0.087-0.13-0.196-0.13-0.33v-9.48c0-0.133,0.043-0.243,0.13-0.329
							c0.087-0.087,0.197-0.131,0.33-0.131h0.84c0.133,0,0.24,0.044,0.32,0.131c0.08,0.086,0.12,0.196,0.12,0.329v0.681
							c0.72-0.894,1.692-1.34,2.92-1.34c1.466,0,2.507,0.613,3.12,1.84c0.32-0.561,0.776-1.007,1.369-1.34
							c0.594-0.334,1.258-0.5,1.99-0.5c1.094,0,1.986,0.373,2.68,1.119c0.693,0.747,1.041,1.827,1.041,3.24v5.78
							c0,0.134-0.044,0.243-0.131,0.33c-0.086,0.087-0.196,0.13-0.33,0.13h-0.859c-0.133,0-0.244-0.043-0.33-0.13
							c-0.087-0.087-0.13-0.196-0.13-0.33v-5.6c0-1.067-0.22-1.83-0.66-2.29s-1.021-0.69-1.739-0.69c-0.641,0-1.19,0.237-1.65,0.71
							c-0.461,0.474-0.69,1.23-0.69,2.271v5.6c0,0.134-0.044,0.243-0.13,0.33c-0.087,0.087-0.197,0.13-0.33,0.13h-0.88
							c-0.134,0-0.243-0.043-0.33-0.13s-0.13-0.196-0.13-0.33v-5.6c0-1.054-0.23-1.813-0.689-2.28c-0.461-0.467-1.031-0.7-1.711-0.7
							c-0.64,0-1.189,0.233-1.649,0.7s-0.69,1.22-0.69,2.26v5.62c0,0.134-0.043,0.243-0.13,0.33s-0.196,0.13-0.33,0.13h-0.88
							C938.479,135.386,938.368,135.343,938.281,135.256z"/>
					</g>
				</g>
			</g>
		</g>
	</g>
</g>
<g id="N-TEXT">
	<g id="MTEXT_00000147910200769619360450000003255503437096977594_">
		<g>
			<g>
				<path fill="#00B9D2" d="M228.38,486.934v-17.455h6.886c1.324,0,2.452,0.251,3.384,0.754c0.932,0.503,1.643,1.199,2.135,2.088
					c0.491,0.889,0.737,1.914,0.737,3.073c0,1.159-0.25,2.182-0.75,3.068s-1.223,1.577-2.169,2.071
					c-0.946,0.494-2.09,0.741-3.431,0.741h-4.389v-2.958h3.792c0.71,0,1.297-0.124,1.76-0.371c0.463-0.247,0.81-0.591,1.04-1.031
					c0.23-0.44,0.345-0.947,0.345-1.521c0-0.58-0.115-1.087-0.345-1.521s-0.578-0.772-1.044-1.014s-1.057-0.362-1.773-0.362h-2.488
					v14.438H228.38z"/>
				<path fill="#00B9D2" d="M247.488,469.479v17.455h-3.631v-17.455H247.488z"/>
				<path fill="#00B9D2" d="M254.118,487.181c-0.835,0-1.58-0.146-2.233-0.439s-1.169-0.727-1.547-1.304s-0.566-1.297-0.566-2.161
					c0-0.727,0.133-1.338,0.4-1.833c0.267-0.494,0.631-0.892,1.091-1.193c0.46-0.301,0.984-0.529,1.572-0.682
					c0.588-0.153,1.206-0.261,1.854-0.324c0.761-0.08,1.375-0.155,1.841-0.226c0.466-0.071,0.804-0.177,1.014-0.319
					c0.21-0.142,0.315-0.352,0.315-0.631v-0.051c0-0.54-0.169-0.958-0.507-1.253c-0.338-0.295-0.817-0.443-1.436-0.443
					c-0.653,0-1.173,0.144-1.56,0.431c-0.386,0.287-0.642,0.646-0.767,1.078l-3.358-0.273c0.17-0.795,0.506-1.484,1.006-2.067
					c0.5-0.582,1.146-1.031,1.939-1.347c0.792-0.315,1.711-0.473,2.757-0.473c0.728,0,1.425,0.085,2.092,0.255
					s1.262,0.435,1.781,0.793c0.52,0.358,0.931,0.817,1.231,1.376c0.301,0.56,0.452,1.229,0.452,2.007v8.83h-3.443v-1.815h-0.103
					c-0.21,0.409-0.491,0.769-0.844,1.078c-0.352,0.31-0.775,0.551-1.27,0.725C255.336,487.095,254.766,487.181,254.118,487.181z
					 M255.158,484.676c0.534,0,1.005-0.107,1.415-0.32s0.73-0.501,0.963-0.865c0.233-0.363,0.349-0.775,0.349-1.236v-1.389
					c-0.114,0.074-0.269,0.141-0.464,0.201c-0.196,0.06-0.417,0.113-0.661,0.162s-0.489,0.091-0.733,0.128s-0.466,0.07-0.665,0.098
					c-0.426,0.062-0.798,0.162-1.117,0.298c-0.318,0.136-0.565,0.319-0.741,0.549c-0.176,0.23-0.264,0.516-0.264,0.857
					c0,0.494,0.18,0.871,0.541,1.129C254.142,484.546,254.601,484.676,255.158,484.676z"/>
				<path fill="#00B9D2" d="M267.941,479.366v7.568h-3.631v-13.091h3.46v2.31h0.153c0.29-0.761,0.775-1.365,1.458-1.811
					c0.682-0.446,1.508-0.669,2.48-0.669c0.909,0,1.702,0.199,2.378,0.597c0.676,0.397,1.202,0.964,1.577,1.7
					s0.562,1.612,0.562,2.629v8.335h-3.631v-7.688c0.006-0.801-0.199-1.428-0.613-1.879c-0.415-0.452-0.986-0.677-1.713-0.677
					c-0.489,0-0.919,0.105-1.291,0.315c-0.372,0.21-0.662,0.516-0.87,0.917C268.054,478.322,267.947,478.803,267.941,479.366z"/>
			</g>
		</g>
	</g>
</g>
<g id="_x32_D_x24_AG-DIAGRAM">
	<g id="POLYLINE_00000114074111731972533020000014442457651670559412_">
		<g>
			<g>
				
					<line fill="none" stroke="#00B9D2" stroke-width="3.25" stroke-linecap="round" stroke-linejoin="round" x1="526.611" y1="348.604" x2="528.111" y2="348.604"/>
				
					<line fill="none" stroke="#00B9D2" stroke-width="3.25" stroke-linecap="round" stroke-linejoin="round" stroke-dasharray="2.9793,6.9517" x1="535.063" y1="348.604" x2="918.895" y2="348.604"/>
				
					<line fill="none" stroke="#00B9D2" stroke-width="3.25" stroke-linecap="round" stroke-linejoin="round" x1="922.37" y1="348.604" x2="923.87" y2="348.604"/>
			</g>
		</g>
	</g>
</g>
<g id="_x32_D_x24_AG-DETAILS-DIAGRAM">
</g>
<g id="_x32_D_x24_AG-DETAILS">
	<g id="POLYLINE_00000156576016021079784860000013756876895218318743_">
		<path fill="none" stroke="#00B9D2" stroke-width="2" stroke-linecap="round" stroke-linejoin="round" stroke-miterlimit="10" d="
			M260.658,206.584c3.843,0.299,7.693-0.825,11.033-2.685c2.308-1.288,4.425-2.943,6.24-4.864c1.398-1.486,2.62-3.154,3.668-4.903
			c2.853-4.785,4.439-10.459,3.821-16.04c-3.642,0.168-7.173,1.418-10.362,3.138c-2.371,1.294-4.592,2.901-6.513,4.802
			c-1.384,1.376-2.615,2.93-3.674,4.567C261.861,195.293,259.931,200.966,260.658,206.584z"/>
	</g>
	<g id="POLYLINE_00000099637984963252660880000014021981693656133556_">
		<path fill="none" stroke="#00B9D2" stroke-width="2" stroke-linecap="round" stroke-linejoin="round" stroke-miterlimit="10" d="
			M294.55,243.772c-0.046-3.975,0.809-7.969,2.538-11.552c2.287-4.741,5.96-8.796,10.355-11.678l0.469-0.292
			c-1.981-2.907-4.517-5.444-7.45-7.388c-4.479-2.972-9.809-4.616-15.167-4.875c-4.38-0.447-8.747,0.694-12.834,2.18
			c-2.215,0.799-5.72,2.298-7.953,2.968c-0.703,0.208-1.433,0.391-2.161,0.474c-0.802,0.096-1.618,0.015-2.407-0.141
			c-1.216-0.242-2.43-0.664-3.592-1.093l-5.078-1.973c-2.572-0.954-5.246-1.785-7.988-2.04c-2.937-0.249-5.931,0.112-8.783,0.83
			c-6.449,1.654-12.242,5.59-16.317,10.835c-2.497,3.196-4.361,6.885-5.599,10.741c-5.234,16.424-0.013,36.932,8.472,51.475
			c1.927,3.259,4.236,6.463,6.532,9.473c1.899,2.421,3.971,4.786,6.406,6.683c1.55,1.203,3.279,2.22,5.163,2.797
			c1.059,0.325,2.173,0.507,3.282,0.519c1.526,0.002,3.06-0.212,4.538-0.591c2.021-0.487,4.714-1.728,6.652-2.522
			c1.696-0.689,3.472-1.265,5.277-1.585c2.863-0.499,5.839-0.514,8.697,0.022c2.662,0.47,5.442,1.745,7.923,2.808
			c1.387,0.578,2.832,1.087,4.309,1.378c1.451,0.288,2.946,0.391,4.423,0.31c7.397-0.428,12.41-6.781,16.389-12.362
			c1.658-2.356,3.559-5.118,4.936-7.626c2.085-3.724,3.874-7.677,5.235-11.724l0.331-1.041l-0.215-0.088
			c-1.929-0.832-3.751-1.944-5.437-3.195c-2.708-2.023-5.085-4.521-6.889-7.385C295.893,253.859,294.575,248.8,294.55,243.772"/>
	</g>
	<g id="POLYLINE_00000072988710372848900360000007546467488117323184_">
		<path fill="none" stroke="#00B9D2" stroke-width="2" stroke-linecap="round" stroke-linejoin="round" stroke-miterlimit="10" d="
			M862.457,300.304c0.001-0.668-0.227-1.333-0.638-1.859c-0.409-0.528-0.998-0.913-1.646-1.075c-1.898-0.481-3.753,0.95-3.77,2.908
			c-0.017,1.98,1.85,3.447,3.77,2.961c0.648-0.162,1.237-0.547,1.646-1.075C862.23,301.638,862.459,300.972,862.457,300.304z"/>
	</g>
</g>
<g id="_x32_D_x24_AG-DIGITAL">
	<g id="POLYLINE_00000016753524355245569450000015004116528944577211_">
		
			<path fill="none" stroke="#00B9D2" stroke-width="2.75" stroke-linecap="round" stroke-linejoin="round" stroke-miterlimit="10" d="
			M60.537,385.629c0.004,31.576,23.604,58.243,54.978,62.057c2.094,0.243,4.35,0.417,6.456,0.446c0,0,1.079,0.009,1.079,0.009
			c1.284-0.311,272.174,0.235,273.311-0.01c2.096-0.046,4.377-0.186,6.458-0.446c6.767-0.822,13.447-2.775,19.588-5.735
			c12.658-6.061,23.139-16.539,29.199-29.199c2.015-4.192,3.59-8.677,4.623-13.213c0.625-2.769,1.094-5.694,1.335-8.522
			c0.103-0.958,0.147-2.27,0.195-3.231c0.009-0.556,0.044-1.607,0.037-2.158c0,0,0-272.233,0-272.233
			c0.002-7.899-1.522-15.837-4.454-23.173c-4.385-11.027-12.006-20.758-21.665-27.653c-10.517-7.558-23.443-11.711-36.394-11.686
			c-1.284,0.311-272.174-0.235-273.31,0.01c-0.002-0.001-1.081,0.027-1.081,0.027s-1.078,0.047-1.078,0.047
			s-1.077,0.065-1.077,0.065c-1.716,0.134-3.658,0.326-5.36,0.604c-3.158,0.5-6.395,1.259-9.44,2.24
			c-9.24,2.961-17.794,8.129-24.708,14.936c-7.182,7.049-12.631,15.886-15.699,25.471c-0.973,3.051-1.748,6.276-2.24,9.44
			c-0.315,2.084-0.567,4.333-0.669,6.437c-0.019,0.555-0.071,1.606-0.074,2.157C59.714,112.733,61.127,384.96,60.537,385.629z"/>
	</g>
	<g id="POLYLINE_00000095324615112547718850000013527495852612244881_">
		
			<path fill="none" stroke="#00B9D2" stroke-width="2.75" stroke-linecap="round" stroke-linejoin="round" stroke-miterlimit="10" d="
			M650.033,300.304c-0.002,0.639,0.251,1.274,0.693,1.736c0.439,0.465,1.059,0.751,1.697,0.782
			c0.078,0.02,49.473-0.007,49.579,0.003c0.114-0.002,0.234-0.012,0.347-0.03c0.43-0.067,0.842-0.248,1.182-0.52
			c0.605-0.477,0.966-1.243,0.949-2.014c-0.009-0.741-0.366-1.468-0.949-1.927c-0.34-0.271-0.752-0.453-1.182-0.52
			c-0.099-0.015-0.203-0.025-0.303-0.029c-0.285,0.001-49.35-0.008-49.623,0.002c-0.653,0.032-1.287,0.33-1.727,0.813
			C650.273,299.059,650.031,299.68,650.033,300.304z"/>
	</g>
	<g id="POLYLINE_00000052072789205779476260000008034765664059339935_">
		
			<path fill="none" stroke="#00B9D2" stroke-width="2.75" stroke-linecap="round" stroke-linejoin="round" stroke-miterlimit="10" d="
			M623.029,308.827c-0.982,0.008-1.92-0.603-2.307-1.506c-0.117-0.265-0.187-0.552-0.207-0.841
			c-0.003-0.055-0.006-0.119-0.006-0.174c0,0,0-12.004,0-12.004c0-0.054,0.002-0.12,0.006-0.174
			c0.023-0.332,0.113-0.661,0.263-0.959c0.419-0.852,1.346-1.413,2.295-1.388c0.919,0.008,1.802,0.563,2.208,1.388
			c0.156,0.31,0.248,0.655,0.265,1.002c0.001,0.04,0.004,0.091,0.003,0.13c0,0,0,12.004,0,12.004c0,0.069-0.003,0.148-0.009,0.217
			c-0.025,0.288-0.101,0.574-0.222,0.837C624.922,308.241,623.994,308.836,623.029,308.827z"/>
	</g>
	<g id="POLYLINE_00000170244977746878133260000015031725587677758142_">
		
			<path fill="none" stroke="#00B9D2" stroke-width="2.75" stroke-linecap="round" stroke-linejoin="round" stroke-miterlimit="10" d="
			M593.435,308.827c-0.982,0.008-1.92-0.603-2.307-1.506c-0.117-0.265-0.187-0.552-0.207-0.841
			c-0.003-0.055-0.006-0.119-0.006-0.174c0,0,0-12.004,0-12.004c0-0.054,0.002-0.12,0.006-0.174
			c0.023-0.332,0.113-0.661,0.263-0.959c0.419-0.852,1.346-1.413,2.295-1.388c0.919,0.008,1.802,0.563,2.208,1.388
			c0.156,0.31,0.248,0.655,0.266,1.002c0.001,0.04,0.004,0.091,0.003,0.13c0,0,0,12.004,0,12.004c0,0.069-0.003,0.148-0.009,0.217
			c-0.025,0.288-0.101,0.574-0.222,0.837C595.328,308.241,594.4,308.836,593.435,308.827z"/>
	</g>
	<g id="POLYLINE_00000012464191837029852790000003505688897594286479_">
		
			<path fill="none" stroke="#00B9D2" stroke-width="2.75" stroke-linecap="round" stroke-linejoin="round" stroke-miterlimit="10" d="
			M896.423,331.463l-24.881,17.141c-72.93,0-219.689,0-292.601,0l-24.881-17.141"/>
	</g>
	<g id="POLYLINE_00000073699570710087793920000007054504937471690158_">
		
			<rect x="526.611" y="157.032" fill="none" stroke="#00B9D2" stroke-width="2.75" stroke-linecap="round" stroke-linejoin="round" stroke-miterlimit="10" width="397.259" height="174.431"/>
	</g>
</g>
<g id="_x32_D_x24_AG-OUTLINE">
	<g id="POLYLINE_00000113341820751063929990000008792231036622437791_">
		
			<path fill="none" stroke="#00B9D2" stroke-width="3.5" stroke-linecap="round" stroke-linejoin="round" stroke-miterlimit="10" d="
			M60.537,385.629c0.006,31.496,23.47,58.107,54.749,62.029c2.095,0.256,4.266,0.425,6.376,0.469c0.344,0.029,1.043,0,1.387,0.015
			c0.695-0.004,272.286,0.007,272.924-0.004c2.097-0.027,4.272-0.156,6.356-0.395c7.012-0.794,13.909-2.795,20.256-5.879
			c12.76-6.158,23.277-16.806,29.273-29.643c1.95-4.154,3.457-8.557,4.451-13.037c0.573-2.599,0.998-5.289,1.235-7.939
			c0.086-1.141,0.191-2.389,0.218-3.531c0,0,0.019-0.698,0.019-0.698s0.012-0.695,0.012-0.695c0.184-1.492-0.12-272.092,0-273.618
			c-0.082-7.618-1.579-15.237-4.386-22.319c-4.405-11.174-12.125-21.018-21.928-27.957c-10.483-7.472-23.323-11.569-36.196-11.545
			c-0.695,0.004-272.286-0.007-272.924,0.004c-1.117,0.026-2.391,0.053-3.507,0.137c-2.135,0.148-4.344,0.405-6.453,0.773
			c-3.192,0.554-6.396,1.367-9.463,2.41C84.639,60.385,70.04,74.979,63.861,93.282c-1.04,3.07-1.86,6.269-2.41,9.463
			c-0.401,2.349-0.686,4.78-0.816,7.159c-0.064,0.875-0.073,1.922-0.094,2.798C59.852,112.929,61.03,385.232,60.537,385.629z"/>
	</g>
	<g id="POLYLINE_00000006696368948538817180000008278149600163077777_">
		
			<path fill="none" stroke="#00B9D2" stroke-width="3.5" stroke-linecap="round" stroke-linejoin="round" stroke-miterlimit="10" d="
			M896.423,331.463h27.448V157.032H526.611v174.431h27.448l24.881,17.141c72.93,0,219.689,0,292.601,0L896.423,331.463z"/>
	</g>
</g>
</svg>
