<?xml version="1.0" encoding="utf-8"?>
<!-- Generator: Adobe Illustrator 27.0.1, SVG Export Plug-In . SVG Version: 6.00 Build 0)  -->
<!DOCTYPE svg PUBLIC "-//W3C//DTD SVG 1.1//EN" "http://www.w3.org/Graphics/SVG/1.1/DTD/svg11.dtd" [
	<!ENTITY ns_extend "http://ns.adobe.com/Extensibility/1.0/">
	<!ENTITY ns_ai "http://ns.adobe.com/AdobeIllustrator/10.0/">
	<!ENTITY ns_graphs "http://ns.adobe.com/Graphs/1.0/">
	<!ENTITY ns_vars "http://ns.adobe.com/Variables/1.0/">
	<!ENTITY ns_imrep "http://ns.adobe.com/ImageReplacement/1.0/">
	<!ENTITY ns_sfw "http://ns.adobe.com/SaveForWeb/1.0/">
	<!ENTITY ns_custom "http://ns.adobe.com/GenericCustomNamespace/1.0/">
	<!ENTITY ns_adobe_xpath "http://ns.adobe.com/XPath/1.0/">
]>
<svg version="1.1" xmlns:x="&ns_extend;" xmlns:i="&ns_ai;" xmlns:graph="&ns_graphs;"
	 xmlns="http://www.w3.org/2000/svg" xmlns:xlink="http://www.w3.org/1999/xlink" x="0px" y="0px" width="1000px" height="325px"
	 viewBox="0 0 1000 325" enable-background="new 0 0 1000 325" xml:space="preserve">
<metadata>
	<sfw  xmlns="&ns_sfw;">
		<slices></slices>
		<sliceSourceBounds  bottomLeftOrigin="true" height="2682.128" width="7699" x="-2000" y="39.232"></sliceSourceBounds>
	</sfw>
</metadata>
<g id="FILL-BACKGROUND">
	<rect fill="#FFFFFF" width="1000" height="325"/>
</g>
<g id="N-DIMENSIONS">
</g>
<g id="N-TEXT">
</g>
<g id="_x32_D_x24_AG-DIAGRAM">
	<g id="POLYLINE_00000176750702587198924770000011602139610862809268_">
		<g>
			<g>
				
					<line fill="none" stroke="#00B9D2" stroke-width="3.25" stroke-linecap="round" stroke-linejoin="round" x1="60.386" y1="262.901" x2="61.886" y2="262.901"/>
				
					<line fill="none" stroke="#00B9D2" stroke-width="3.25" stroke-linecap="round" stroke-linejoin="round" stroke-dasharray="2.9704,6.931" x1="68.817" y1="262.901" x2="451.509" y2="262.901"/>
				
					<line fill="none" stroke="#00B9D2" stroke-width="3.25" stroke-linecap="round" stroke-linejoin="round" x1="454.975" y1="262.901" x2="456.475" y2="262.901"/>
			</g>
		</g>
	</g>
	<g id="POLYLINE_00000176037812558530423840000000762086001401063840_">
		<g>
			<g>
				
					<line fill="none" stroke="#00B9D2" stroke-width="3.25" stroke-linecap="round" stroke-linejoin="round" x1="542.585" y1="263.4" x2="544.085" y2="263.4"/>
				
					<line fill="none" stroke="#00B9D2" stroke-width="3.25" stroke-linecap="round" stroke-linejoin="round" stroke-dasharray="2.9704,6.931" x1="551.016" y1="263.4" x2="933.708" y2="263.4"/>
				
					<line fill="none" stroke="#00B9D2" stroke-width="3.25" stroke-linecap="round" stroke-linejoin="round" x1="937.174" y1="263.4" x2="938.674" y2="263.4"/>
			</g>
		</g>
	</g>
</g>
<g id="_x32_D_x24_AG-DETAILS-DIAGRAM">
	<g id="POLYLINE_00000040541172730925775950000006731488359803646603_">
		<g>
			<g>
				<path fill="none" stroke="#00B9D2" stroke-width="2" stroke-linecap="round" stroke-linejoin="round" d="M431.26,80.348
					c0.984,0,1.495,0,1.495,0v1.5"/>
				
					<line fill="none" stroke="#00B9D2" stroke-width="2" stroke-linecap="round" stroke-linejoin="round" stroke-dasharray="3.0436,5.0727" x1="432.755" y1="86.92" x2="432.755" y2="173.663"/>
				<polyline fill="none" stroke="#00B9D2" stroke-width="2" stroke-linecap="round" stroke-linejoin="round" points="
					432.755,176.2 432.755,177.7 431.255,177.7 				"/>
				
					<line fill="none" stroke="#00B9D2" stroke-width="2" stroke-linecap="round" stroke-linejoin="round" stroke-dasharray="2.9712,4.952" x1="426.303" y1="177.7" x2="88.082" y2="177.7"/>
				<polyline fill="none" stroke="#00B9D2" stroke-width="2" stroke-linecap="round" stroke-linejoin="round" points="85.606,177.7 
					84.106,177.7 84.106,176.2 				"/>
				
					<line fill="none" stroke="#00B9D2" stroke-width="2" stroke-linecap="round" stroke-linejoin="round" stroke-dasharray="3.0436,5.0727" x1="84.106" y1="171.127" x2="84.106" y2="84.384"/>
				<path fill="none" stroke="#00B9D2" stroke-width="2" stroke-linecap="round" stroke-linejoin="round" d="M84.106,81.848v-1.5
					c0,0,0.511,0,1.495,0"/>
				
					<path fill="none" stroke="#00B9D2" stroke-width="2" stroke-linecap="round" stroke-linejoin="round" stroke-dasharray="2.9712,4.952" d="
					M90.55,80.348c44.295,0,302.989,0,338.23,0"/>
			</g>
		</g>
	</g>
	<g id="POLYLINE_00000030470173753079841100000007261458658556026280_">
		<g>
			<g>
				
					<line fill="none" stroke="#00B9D2" stroke-width="2" stroke-linecap="round" stroke-linejoin="round" x1="542.585" y1="80.847" x2="544.085" y2="80.847"/>
				<polyline fill="none" stroke="#00B9D2" stroke-width="2" stroke-linecap="round" stroke-linejoin="round" points="
					550.106,80.847 551.606,80.847 551.606,82.347 				"/>
				
					<line fill="none" stroke="#00B9D2" stroke-width="2" stroke-linecap="round" stroke-linejoin="round" stroke-dasharray="3.0436,5.0727" x1="551.606" y1="87.42" x2="551.606" y2="174.163"/>
				<polyline fill="none" stroke="#00B9D2" stroke-width="2" stroke-linecap="round" stroke-linejoin="round" points="
					551.606,176.699 551.606,178.199 550.106,178.199 				"/>
				
					<line fill="none" stroke="#00B9D2" stroke-width="2" stroke-linecap="round" stroke-linejoin="round" x1="544.085" y1="178.199" x2="542.585" y2="178.199"/>
			</g>
		</g>
	</g>
</g>
<g id="_x32_D_x24_AG-DETAILS">
	<g id="POLYLINE_00000169555516864239449650000015070977291407217855_">
		<path fill="none" stroke="#00B9D2" stroke-width="2" stroke-linecap="round" stroke-linejoin="round" stroke-miterlimit="10" d="
			M270.761,221.874c0.057-0.23,0.2-0.438,0.394-0.575c0.184-0.136,0.424-0.174,0.637-0.243c2.067-0.635,3.956-1.846,5.395-3.46
			c1.439-1.606,2.431-3.612,2.833-5.73c0.87-4.462-0.948-9.14-4.604-11.843c-4.685-3.503-11.28-3.077-15.476,0.998
			c-0.352,0.34-0.692,0.715-1,1.095c-0.061,0.07-0.132,0.132-0.209,0.182c-0.357,0.239-0.854,0.213-1.185-0.061
			c-0.104-0.087-0.166-0.17-0.248-0.271c-0.446-0.536-0.948-1.042-1.481-1.492c-1.463-1.237-3.232-2.115-5.102-2.533
			c-5.481-1.241-11.147,1.561-13.488,6.672c-2.239,4.831-0.967,10.644,3.086,14.097c1.064,0.912,2.296,1.637,3.61,2.126
			c0.329,0.123,0.685,0.235,1.022,0.33c0.077,0.025,0.151,0.061,0.219,0.104c0.191,0.12,0.339,0.307,0.412,0.521
			c0.265,1.034,0.638,2.045,1.142,2.987c0.923,1.744,2.252,3.273,3.851,4.43c1.612,1.169,3.499,1.96,5.463,2.288
			C262.686,232.618,269.117,228.418,270.761,221.874z"/>
	</g>
	<g id="POLYLINE_00000102518532129036234480000012857104416209983110_">
		<path fill="none" stroke="#00B9D2" stroke-width="2" stroke-linecap="round" stroke-linejoin="round" stroke-miterlimit="10" d="
			M264.239,209.619c-0.002-0.888,0.302-1.773,0.849-2.473c0.544-0.702,1.328-1.214,2.189-1.43c2.556-0.645,5.035,1.302,5.014,3.938
			c-0.024,2.607-2.487,4.507-5.014,3.868c-0.861-0.216-1.645-0.728-2.189-1.43C264.541,211.393,264.237,210.507,264.239,209.619z"/>
	</g>
	<g id="POLYLINE_00000121239216533180913950000006007130546736781720_">
		<path fill="none" stroke="#00B9D2" stroke-width="2" stroke-linecap="round" stroke-linejoin="round" stroke-miterlimit="10" d="
			M252.125,209.619c0.002-0.888-0.302-1.773-0.849-2.473c-0.544-0.702-1.328-1.214-2.189-1.43c-2.556-0.645-5.035,1.302-5.014,3.938
			c0.024,2.607,2.487,4.507,5.014,3.868c0.861-0.216,1.645-0.728,2.189-1.43C251.823,211.393,252.127,210.507,252.125,209.619z"/>
	</g>
	<g id="POLYLINE_00000080207386239057537720000002552704893722015659_">
		<path fill="none" stroke="#00B9D2" stroke-width="2" stroke-linecap="round" stroke-linejoin="round" stroke-miterlimit="10" d="
			M263.208,218.702c0.002-1.109-0.377-2.214-1.06-3.087c-0.679-0.876-1.657-1.516-2.733-1.785c-3.155-0.797-6.23,1.575-6.26,4.829
			c-0.026,3.291,3.07,5.722,6.26,4.916c1.075-0.27,2.054-0.909,2.733-1.785C262.831,220.916,263.211,219.81,263.208,218.702z"/>
	</g>
	<g id="POLYLINE_00000025404269334640964700000005096238488907834018_">
		
			<rect x="349.425" y="213.739" fill="none" stroke="#00B9D2" stroke-width="2" stroke-linecap="round" stroke-linejoin="round" stroke-miterlimit="10" width="21.866" height="2.011"/>
	</g>
	<g id="POLYLINE_00000006696154701623963560000004726330525887835543_">
		
			<rect x="322.626" y="203.686" fill="none" stroke="#00B9D2" stroke-width="2" stroke-linecap="round" stroke-linejoin="round" stroke-miterlimit="10" width="2.413" height="22.117"/>
	</g>
	<g id="POLYLINE_00000145060210428036154170000012686451808063971005_">
		
			<rect x="297.318" y="203.686" fill="none" stroke="#00B9D2" stroke-width="2" stroke-linecap="round" stroke-linejoin="round" stroke-miterlimit="10" width="2.413" height="22.117"/>
	</g>
</g>
<g id="_x32_D_x24_AG-DIGITAL">
	<g id="POLYLINE_00000070828420272052775160000005395745223342335423_">
		
			<path fill="none" stroke="#00B9D2" stroke-width="2.75" stroke-linecap="round" stroke-linejoin="round" stroke-miterlimit="10" d="
			M430.185,214.744c0.013-4.039-2.779-7.625-6.697-8.604c-5.579-1.404-10.997,2.775-11.055,8.527
			c-0.041,5.817,5.413,10.101,11.055,8.682C427.406,222.369,430.198,218.783,430.185,214.744z"/>
	</g>
	<g id="POLYLINE_00000042709645905449633540000006763345264500864442_">
		
			<path fill="none" stroke="#00B9D2" stroke-width="2.75" stroke-linecap="round" stroke-linejoin="round" stroke-miterlimit="10" d="
			M267.631,219.032c0.009-0.388,0.265-0.753,0.625-0.896c0.086-0.035,0.178-0.058,0.271-0.069c0.296-0.016,0.611-0.037,0.904-0.079
			c3.836-0.523,6.861-3.66,7.241-7.514c0.172-1.663-0.166-3.373-0.958-4.845c-0.801-1.502-2.07-2.749-3.585-3.524
			c-3.412-1.764-7.639-0.971-10.181,1.906c-1.13,1.268-1.861,2.886-2.066,4.572c-0.015,0.119-0.024,0.249-0.066,0.36
			c-0.067,0.193-0.194,0.365-0.36,0.485c-0.127,0.093-0.278,0.155-0.433,0.179c-0.137,0.028-1.436,0.008-1.592,0.01
			c-0.459-0.028-0.854-0.389-0.923-0.844c-0.136-1.311-0.577-2.594-1.289-3.704c-0.729-1.144-1.743-2.108-2.92-2.782
			c-1.468-0.844-3.194-1.23-4.882-1.09c-1.632,0.13-3.221,0.749-4.51,1.757c-3.379,2.626-4.255,7.405-2.024,11.059
			c1.338,2.225,3.748,3.751,6.331,4.009c0.188,0.019,0.402,0.035,0.59,0.042c0.064,0.005,0.128,0.016,0.189,0.032
			c0.186,0.05,0.356,0.156,0.485,0.299c0.133,0.147,0.22,0.335,0.247,0.532c0.037,0.845,0.156,1.692,0.405,2.502
			c0.631,2.114,2.031,3.986,3.882,5.188c1.394,0.913,3.034,1.446,4.698,1.528c1.694,0.087,3.41-0.295,4.907-1.092
			c1.478-0.783,2.742-1.967,3.617-3.393C267.088,222.273,267.576,220.66,267.631,219.032z"/>
	</g>
	<g id="POLYLINE_00000090295791362252592850000004126406245841699228_">
		
			<path fill="none" stroke="#00B9D2" stroke-width="2.75" stroke-linecap="round" stroke-linejoin="round" stroke-miterlimit="10" d="
			M265.85,209.619c-0.001-0.533,0.181-1.064,0.509-1.484c0.326-0.421,0.797-0.728,1.313-0.858c0.721-0.187,1.522-0.014,2.102,0.455
			c0.573,0.453,0.917,1.177,0.907,1.908c-0.002,0.731-0.359,1.448-0.94,1.892c-0.576,0.449-1.361,0.612-2.068,0.429
			c-0.517-0.13-0.987-0.437-1.313-0.858C266.031,210.683,265.849,210.152,265.85,209.619z"/>
	</g>
	<g id="POLYLINE_00000124866225709496469010000009961136226541201846_">
		
			<path fill="none" stroke="#00B9D2" stroke-width="2.75" stroke-linecap="round" stroke-linejoin="round" stroke-miterlimit="10" d="
			M250.514,209.619c0.001-0.533-0.181-1.064-0.509-1.484c-0.326-0.421-0.797-0.728-1.313-0.858
			c-0.721-0.187-1.522-0.014-2.102,0.455c-0.573,0.453-0.917,1.177-0.907,1.908c0.002,0.731,0.359,1.448,0.94,1.892
			c0.576,0.449,1.361,0.612,2.068,0.429c0.517-0.13,0.987-0.437,1.313-0.858C250.333,210.683,250.515,210.152,250.514,209.619z"/>
	</g>
	<g id="POLYLINE_00000101801881339975563750000002002119948772731534_">
		
			<path fill="none" stroke="#00B9D2" stroke-width="2.75" stroke-linecap="round" stroke-linejoin="round" stroke-miterlimit="10" d="
			M261.198,218.702c0.001-0.665-0.226-1.328-0.636-1.852c-0.407-0.526-0.994-0.909-1.64-1.071c-1.892-0.479-3.739,0.946-3.756,2.897
			c-0.017,1.973,1.843,3.434,3.756,2.95c0.645-0.162,1.232-0.545,1.64-1.071C260.972,220.03,261.199,219.367,261.198,218.702z"/>
	</g>
	<g id="POLYLINE_00000103240939935940067270000014765862884965531535_">
		
			<path fill="none" stroke="#00B9D2" stroke-width="2.75" stroke-linecap="round" stroke-linejoin="round" stroke-miterlimit="10" d="
			M322.144,227.734c-0.532,0.004-1.051-0.297-1.31-0.762c-0.099-0.173-0.163-0.367-0.187-0.565
			c-0.007-0.059-0.011-0.122-0.011-0.182c0.038-0.229-0.034-22.891,0.006-23.094c0.016-0.19,0.069-0.377,0.155-0.548
			c0.186-0.373,0.534-0.661,0.936-0.773c0.083-0.023,0.17-0.04,0.255-0.049c0.05-0.005,0.105-0.009,0.156-0.008c0,0,7.364,0,7.364,0
			c0.304,0,0.607,0.094,0.857,0.267c0.301,0.206,0.521,0.526,0.608,0.88c0.027,0.109,0.042,0.223,0.044,0.335
			c0.012,0.006-0.008,22.977,0,22.99c0,0.05-0.003,0.106-0.008,0.156c-0.053,0.556-0.441,1.061-0.965,1.254
			c-0.121,0.046-0.25,0.077-0.379,0.09c-0.051,0.005-0.105,0.009-0.156,0.008C329.508,227.734,322.144,227.734,322.144,227.734z"/>
	</g>
	<g id="POLYLINE_00000098211192537110969340000002531795974102839943_">
		
			<path fill="none" stroke="#00B9D2" stroke-width="2.75" stroke-linecap="round" stroke-linejoin="round" stroke-miterlimit="10" d="
			M296.836,227.734c-0.532,0.004-1.051-0.297-1.31-0.762c-0.099-0.173-0.163-0.367-0.187-0.565
			c-0.007-0.059-0.011-0.122-0.011-0.182c0.038-0.229-0.034-22.891,0.006-23.094c0.016-0.19,0.069-0.377,0.155-0.548
			c0.186-0.373,0.534-0.661,0.936-0.773c0.083-0.023,0.17-0.04,0.255-0.049c0.05-0.005,0.105-0.009,0.156-0.008c0,0,7.364,0,7.364,0
			c0.304,0,0.607,0.094,0.857,0.267c0.301,0.206,0.521,0.526,0.608,0.88c0.027,0.109,0.042,0.223,0.044,0.335
			c0.012,0.006-0.008,22.977,0,22.99c0,0.05-0.003,0.106-0.008,0.156c-0.053,0.556-0.441,1.061-0.965,1.254
			c-0.121,0.046-0.25,0.077-0.379,0.09c-0.05,0.005-0.105,0.009-0.156,0.008C304.199,227.734,296.836,227.734,296.836,227.734z"/>
	</g>
	<g id="POLYLINE_00000105412014421179107040000001809183883499954304_">
		
			<path fill="none" stroke="#00B9D2" stroke-width="2.75" stroke-linecap="round" stroke-linejoin="round" stroke-miterlimit="10" d="
			M375.163,211.225c0.005-0.655-0.443-1.259-1.072-1.443c-0.141-0.043-0.289-0.064-0.436-0.064
			c-0.052,0.001-26.598-0.002-26.646,0.001c-0.121,0.004-0.243,0.023-0.359,0.056c-0.284,0.08-0.543,0.246-0.735,0.47
			c-0.175,0.204-0.294,0.456-0.34,0.721c-0.013,0.076-0.021,0.156-0.022,0.233c-0.006,0.025,0.004,4.754,0,4.78l4.712,3.519
			c5.031,0,15.155,0,20.185,0l4.712-3.519V211.225z"/>
	</g>
	<g id="POLYLINE_00000002354001700530019710000008592756384508646837_">
		
			<path fill="none" stroke="#00B9D2" stroke-width="2.75" stroke-linecap="round" stroke-linejoin="round" stroke-miterlimit="10" d="
			M397.979,214.744c0.002-0.887-0.302-1.771-0.848-2.47c-0.543-0.701-1.326-1.212-2.186-1.428c-2.553-0.645-5.029,1.301-5.008,3.933
			c0.024,2.603,2.484,4.501,5.008,3.863c0.86-0.216,1.643-0.727,2.186-1.428C397.677,216.515,397.981,215.631,397.979,214.744z"/>
	</g>
	<g id="POLYLINE_00000072966161438072974340000000456279160544290447_">
		
			<polyline fill="none" stroke="#00B9D2" stroke-width="2.75" stroke-linecap="round" stroke-linejoin="round" stroke-miterlimit="10" points="
			221.791,210.432 216.161,210.432 216.161,207.412 213.278,207.412 213.278,204.345 		"/>
	</g>
	<g id="POLYLINE_00000091715813592432449370000011928307408183961729_">
		
			<polyline fill="none" stroke="#00B9D2" stroke-width="2.75" stroke-linecap="round" stroke-linejoin="round" stroke-miterlimit="10" points="
			197.06,210.432 202.69,210.432 202.69,207.412 205.573,207.412 205.573,204.345 		"/>
	</g>
	<g id="POLYLINE_00000078724805076894979040000004610417198553066661_">
		
			<path fill="none" stroke="#00B9D2" stroke-width="2.75" stroke-linecap="round" stroke-linejoin="round" stroke-miterlimit="10" d="
			M199.071,225.143c-0.65,0.004-1.289-0.331-1.655-0.868c-0.204-0.295-0.327-0.646-0.351-1.003
			c-0.002-0.044-0.006-0.095-0.005-0.139c0,0,0-16.776,0-16.776c0-0.114,0.01-0.233,0.03-0.345c0.065-0.376,0.241-0.733,0.499-1.014
			c0.281-0.307,0.66-0.524,1.068-0.609c0.124-0.026,0.253-0.041,0.379-0.043c0.008-0.03,20.726,0.021,20.744,0
			c0.475-0.001,0.947,0.173,1.307,0.483c0.388,0.33,0.642,0.813,0.693,1.32c0.005,0.056,0.01,0.117,0.01,0.173
			c0.024,0.019-0.017,16.786,0,16.811c0,0.091-0.006,0.187-0.019,0.277c-0.049,0.355-0.196,0.697-0.42,0.977
			c-0.281,0.354-0.684,0.607-1.125,0.707c-0.135,0.031-0.275,0.048-0.413,0.05C219.807,225.172,199.088,225.122,199.071,225.143z"/>
	</g>
	<g id="POLYLINE_00000092423128562339484960000004072284006532924847_">
		
			<path fill="none" stroke="#00B9D2" stroke-width="2.75" stroke-linecap="round" stroke-linejoin="round" stroke-miterlimit="10" d="
			M180.234,223.242c-0.979,0.008-1.914-0.601-2.301-1.502c-0.116-0.264-0.187-0.55-0.207-0.838
			c-0.003-0.055-0.006-0.119-0.006-0.173c0,0,0-11.969,0-11.969c0-0.053,0.002-0.12,0.006-0.173
			c0.023-0.331,0.113-0.659,0.262-0.956c0.417-0.849,1.342-1.409,2.289-1.383c0.917,0.008,1.797,0.561,2.202,1.383
			c0.156,0.31,0.247,0.653,0.265,0.999c0.001,0.04,0.004,0.091,0.003,0.13c0,0,0,11.969,0,11.969c0,0.069-0.003,0.148-0.009,0.217
			c-0.025,0.287-0.1,0.573-0.221,0.835C182.122,222.658,181.197,223.251,180.234,223.242z"/>
	</g>
	<g id="POLYLINE_00000162335954572217117960000011525100440751070097_">
		
			<path fill="none" stroke="#00B9D2" stroke-width="2.75" stroke-linecap="round" stroke-linejoin="round" stroke-miterlimit="10" d="
			M160.685,223.242c-0.979,0.008-1.914-0.601-2.301-1.502c-0.116-0.264-0.187-0.55-0.207-0.838
			c-0.003-0.055-0.006-0.119-0.006-0.173c0,0,0-11.969,0-11.969c0-0.053,0.002-0.12,0.006-0.173
			c0.023-0.331,0.113-0.659,0.262-0.956c0.417-0.849,1.342-1.409,2.289-1.383c0.917,0.008,1.797,0.561,2.202,1.383
			c0.156,0.31,0.247,0.653,0.265,0.999c0.001,0.04,0.004,0.091,0.003,0.13c0,0,0,11.969,0,11.969c0,0.069-0.003,0.148-0.009,0.217
			c-0.025,0.287-0.1,0.573-0.221,0.835C162.573,222.658,161.648,223.251,160.685,223.242z"/>
	</g>
	<g id="POLYLINE_00000179633300329683089790000011360933068471647151_">
		
			<path fill="none" stroke="#00B9D2" stroke-width="2.75" stroke-linecap="round" stroke-linejoin="round" stroke-miterlimit="10" d="
			M141.136,223.242c-0.979,0.008-1.914-0.601-2.301-1.502c-0.116-0.264-0.187-0.55-0.207-0.838
			c-0.003-0.055-0.006-0.119-0.006-0.173c0,0,0-11.969,0-11.969c0-0.053,0.002-0.12,0.006-0.173
			c0.023-0.331,0.113-0.659,0.262-0.956c0.417-0.849,1.342-1.409,2.289-1.383c0.917,0.008,1.797,0.561,2.202,1.383
			c0.156,0.31,0.247,0.653,0.265,0.999c0.001,0.04,0.004,0.091,0.003,0.13c0,0,0,11.969,0,11.969c0,0.069-0.003,0.148-0.009,0.217
			c-0.025,0.287-0.1,0.573-0.221,0.835C143.024,222.658,142.099,223.251,141.136,223.242z"/>
	</g>
	<g id="POLYLINE_00000024704817553058832470000002197344941592856249_">
		
			<path fill="none" stroke="#00B9D2" stroke-width="2.75" stroke-linecap="round" stroke-linejoin="round" stroke-miterlimit="10" d="
			M121.587,223.242c-0.979,0.008-1.914-0.601-2.301-1.502c-0.116-0.264-0.187-0.55-0.207-0.838
			c-0.003-0.055-0.006-0.119-0.006-0.173c0,0,0-11.969,0-11.969c0-0.053,0.002-0.12,0.006-0.173
			c0.023-0.331,0.113-0.659,0.262-0.956c0.417-0.849,1.342-1.409,2.289-1.383c0.917,0.008,1.797,0.561,2.202,1.383
			c0.156,0.31,0.247,0.653,0.265,0.999c0.001,0.04,0.004,0.091,0.003,0.13c0,0,0,11.969,0,11.969c0,0.069-0.003,0.148-0.009,0.217
			c-0.025,0.287-0.1,0.573-0.221,0.835C123.475,222.658,122.55,223.251,121.587,223.242z"/>
	</g>
	<g id="POLYLINE_00000069371869883952166880000014507347253949620873_">
		
			<path fill="none" stroke="#00B9D2" stroke-width="2.75" stroke-linecap="round" stroke-linejoin="round" stroke-miterlimit="10" d="
			M429.108,245.811l-24.808,17.09c-72.715,0-219.042,0-291.739,0l-24.808-17.09"/>
	</g>
	<g id="POLYLINE_00000075875752520627768450000016183939163039718586_">
		
			<rect x="60.386" y="71.893" fill="none" stroke="#00B9D2" stroke-width="2.75" stroke-linecap="round" stroke-linejoin="round" stroke-miterlimit="10" width="396.089" height="173.917"/>
	</g>
	<g id="POLYLINE_00000014619274041232937120000004743399498913145239_">
		
			<path fill="none" stroke="#00B9D2" stroke-width="2.75" stroke-linecap="round" stroke-linejoin="round" stroke-miterlimit="10" d="
			M549.037,215.243c-0.004-1.618-0.123-3.266-0.425-4.857c-0.185-0.939-0.425-1.887-0.841-2.753
			c-0.233-0.463-0.56-1.018-1.064-1.215l-0.015-0.005l-0.015-0.005l-0.015-0.005l-0.015-0.004l-0.015-0.004l-0.015-0.004
			l-0.015-0.004l-0.015-0.003l-0.015-0.003l-0.015-0.003l-0.015-0.002l-0.015-0.002l-0.015-0.002l-0.015-0.002l-0.015-0.001
			l-0.015-0.001l-0.014-0.001l-0.014,0l-0.014,0l-0.014,0l-0.014,0l-0.014,0.001l-0.015,0.001l-0.015,0.001l-0.015,0.002
			l-0.015,0.002l-0.015,0.002l-0.015,0.002l-0.015,0.003l-0.015,0.003l-0.015,0.003l-0.015,0.004l-0.015,0.004l-0.015,0.004
			l-0.015,0.004l-0.015,0.005l-0.015,0.005l-0.015,0.005c-0.208,0.077-0.383,0.224-0.53,0.387c-0.234,0.262-0.411,0.572-0.562,0.887
			c-0.425,0.91-0.665,1.902-0.848,2.886c-0.298,1.659-0.406,3.376-0.387,5.061c0.024,1.55,0.154,3.129,0.46,4.65
			c0.191,0.916,0.435,1.841,0.861,2.678c0.229,0.429,0.536,0.917,1.007,1.101l0.015,0.005l0.015,0.005l0.015,0.005l0.015,0.004
			l0.015,0.004l0.015,0.004l0.015,0.004l0.015,0.003l0.015,0.003l0.015,0.003l0.015,0.002l0.015,0.002l0.015,0.002l0.015,0.002
			l0.015,0.001l0.015,0.001l0.014,0.001l0.014,0l0.014,0l0.014,0l0.014,0l0.014-0.001l0.015-0.001l0.015-0.001l0.015-0.002
			l0.015-0.002l0.015-0.002l0.015-0.002l0.015-0.003l0.015-0.003l0.015-0.003l0.015-0.004l0.015-0.004l0.015-0.004l0.015-0.004
			l0.015-0.005l0.015-0.005l0.015-0.005c0.504-0.196,0.831-0.753,1.064-1.215c0.416-0.866,0.656-1.814,0.841-2.753
			C548.913,218.51,549.033,216.861,549.037,215.243z"/>
	</g>
	<g id="POLYLINE_00000142870863397677974030000017737128301518742186_">
		
			<path fill="none" stroke="#00B9D2" stroke-width="2.75" stroke-linecap="round" stroke-linejoin="round" stroke-miterlimit="10" d="
			M911.307,246.31l-24.808,17.09c-72.715,0-219.042,0-291.739,0l-24.808-17.09"/>
	</g>
	<g id="POLYLINE_00000091699226609275439600000016165842866352359085_">
		
			<rect x="542.585" y="72.393" fill="none" stroke="#00B9D2" stroke-width="2.75" stroke-linecap="round" stroke-linejoin="round" stroke-miterlimit="10" width="396.089" height="173.917"/>
	</g>
</g>
<g id="_x32_D_x24_AG-OUTLINE">
	<g id="POLYLINE_00000098912773292878210220000009977336683308408487_">
		
			<path fill="none" stroke="#00B9D2" stroke-width="3.5" stroke-linecap="round" stroke-linejoin="round" stroke-miterlimit="10" d="
			M429.108,245.811h27.367V71.893H60.386v173.917h27.367l24.808,17.09c72.715,0,219.042,0,291.739,0L429.108,245.811z"/>
	</g>
	<g id="POLYLINE_00000096036024778802712120000015130907986750596538_">
		
			<path fill="none" stroke="#00B9D2" stroke-width="3.5" stroke-linecap="round" stroke-linejoin="round" stroke-miterlimit="10" d="
			M911.307,246.31h27.367V72.393H542.585V246.31h27.367l24.808,17.09c72.715,0,219.042,0,291.739,0L911.307,246.31z"/>
	</g>
</g>
</svg>
